<svg height="28" viewBox="0 0 48 28" width="48" xmlns="http://www.w3.org/2000/svg"><g fill="none" fill-rule="evenodd"><path d="m0 0h8v8h-8z" fill="#feff10" transform="matrix(0 1 -1 0 8 0)"/><path d="m20 0h8v8h-8z" fill="#22b9ff" transform="matrix(0 1 -1 0 28 -20)"/><path d="m0 20h8v8h-8z" fill="#f00" transform="matrix(0 -1 1 0 -20 28)"/><path d="m20 20h8v8h-8z" fill="#8dd3d6" transform="matrix(0 -1 1 0 0 48)"/><path d="m40 20h8v8h-8z" fill="#476fff"/><path d="m40 0h8v8h-8z" fill="#0f9"/><path d="m30 10h8v8h-8z" fill="#ff4c00"/><path d="m10 10h8v8h-8z" fill="#456d6b"/></g></svg>