<?xml version="1.0" encoding="UTF-8"?>
<svg width="48px" height="28px" viewBox="0 0 48 28" version="1.1" xmlns="http://www.w3.org/2000/svg" xmlns:xlink="http://www.w3.org/1999/xlink">
    <!-- Generator: Sketch 60.1 (88133) - https://sketch.com -->
    <title>burger-menu copy</title>
    <desc>Created with Sketch.</desc>
    <g id="1366" stroke="none" stroke-width="1" fill="none" fill-rule="evenodd">
        <g id="Porfolio_Colors_v2" transform="translate(-334.000000, -560.000000)">
            <g id="burger-menu-copy" transform="translate(334.000000, 560.000000)">
                <rect id="Rectangle" fill="#FEFF10" transform="translate(4.000000, 4.000000) rotate(-270.000000) translate(-4.000000, -4.000000) " x="0" y="0" width="8" height="8"></rect>
                <rect id="Rectangle-Copy-9" fill="#009F77" transform="translate(14.000000, 24.000000) rotate(-90.000000) translate(-14.000000, -24.000000) " x="10" y="20" width="8" height="8"></rect>
                <rect id="Rectangle-Copy" fill="#22B9FF" transform="translate(24.000000, 4.000000) rotate(-270.000000) translate(-24.000000, -4.000000) " x="20" y="0" width="8" height="8"></rect>
                <rect id="Rectangle-Copy-10" fill="#FF0000" transform="translate(4.000000, 24.000000) rotate(-90.000000) translate(-4.000000, -24.000000) " x="0" y="20" width="8" height="8"></rect>
                <rect id="Rectangle-Copy-2" fill="#E50084" transform="translate(14.000000, 4.000000) rotate(-270.000000) translate(-14.000000, -4.000000) " x="10" y="0" width="8" height="8"></rect>
                <rect id="Rectangle-Copy-11" fill="#8DD3D6" transform="translate(24.000000, 24.000000) rotate(-90.000000) translate(-24.000000, -24.000000) " x="20" y="20" width="8" height="8"></rect>
                <rect id="Rectangle-Copy-3" fill="#FFFFFF" transform="translate(34.000000, 4.000000) rotate(-270.000000) translate(-34.000000, -4.000000) " x="30" y="1.13686838e-13" width="8" height="8"></rect>
                <rect id="Rectangle-Copy-12" fill="#BCBCBC" transform="translate(34.000000, 24.000000) rotate(-90.000000) translate(-34.000000, -24.000000) " x="30" y="20" width="8" height="8"></rect>
                <rect id="Rectangle-Copy-13" fill="#F4BD9B" x="40" y="10" width="8" height="8"></rect>
                <rect id="Rectangle-Copy-14" fill="#476FFF" x="40" y="20" width="8" height="8"></rect>
                <rect id="Rectangle-Copy-16" fill="#00FF99" x="40" y="0" width="8" height="8"></rect>
                <rect id="Rectangle-Copy-5" fill="#599DD6" x="0" y="10" width="8" height="8"></rect>
                <rect id="Rectangle-Copy-6" fill="#FFC000" x="20" y="10" width="8" height="8"></rect>
                <rect id="Rectangle-Copy-7" fill="#FF4C00" x="30" y="10" width="8" height="8"></rect>
                <rect id="Rectangle-Copy-8" fill="#456D6B" x="10" y="10" width="8" height="8"></rect>
            </g>
        </g>
    </g>
</svg>